<svg width="67" height="67" viewBox="0 0 67 67" fill="none" xmlns="http://www.w3.org/2000/svg">
<path fill-rule="evenodd" clip-rule="evenodd" d="M26 21C26 19.8954 26.8954 19 28 19H43C44.1046 19 45 19.8954 45 21V45C45 46.1046 44.1046 47 43 47H28C26.8954 47 26 46.1046 26 45V39H28V44C28 44.5523 28.4477 45 29 45H42C42.5523 45 43 44.5523 43 44V22C43 21.4477 42.5523 21 42 21H29C28.4477 21 28 21.4477 28 22V27H26V21Z" fill="#D9D9D9"/>
<path d="M29 34C29.5523 34 30 33.5523 30 33C30 32.4477 29.5523 32 29 32V34ZM15.2929 32.2929C14.9024 32.6834 14.9024 33.3166 15.2929 33.7071L21.6569 40.0711C22.0474 40.4616 22.6805 40.4616 23.0711 40.0711C23.4616 39.6805 23.4616 39.0474 23.0711 38.6569L17.4142 33L23.0711 27.3431C23.4616 26.9526 23.4616 26.3195 23.0711 25.9289C22.6805 25.5384 22.0474 25.5384 21.6569 25.9289L15.2929 32.2929ZM29 32H16V34H29V32Z" fill="#E5E9F0"/>
</svg>
