<svg width="236" height="38" viewBox="0 0 236 38" fill="none" xmlns="http://www.w3.org/2000/svg">
<path d="M15.3316 37.5C12.2316 37.5 9.59831 36.9667 7.43164 35.9C5.29831 34.8 3.66497 33.25 2.53164 31.25C1.39831 29.2167 0.764974 26.7833 0.631641 23.95C0.598307 22.5833 0.581641 21.1167 0.581641 19.55C0.581641 17.9833 0.598307 16.4833 0.631641 15.05C0.764974 12.25 1.39831 9.83333 2.53164 7.8C3.69831 5.76666 5.34831 4.21666 7.48164 3.15C9.64831 2.05 12.265 1.5 15.3316 1.5C17.5983 1.5 19.6316 1.8 21.4316 2.4C23.2316 3 24.765 3.83333 26.0316 4.9C27.2983 5.93333 28.2816 7.15 28.9816 8.55C29.6816 9.95 30.0483 11.4667 30.0816 13.1C30.115 13.4 30.015 13.65 29.7816 13.85C29.5816 14.05 29.3316 14.15 29.0316 14.15H24.2816C23.915 14.15 23.615 14.0667 23.3816 13.9C23.1483 13.7 22.9816 13.3833 22.8816 12.95C22.3483 10.75 21.4316 9.25 20.1316 8.45C18.8316 7.65 17.215 7.25 15.2816 7.25C13.0483 7.25 11.265 7.88333 9.93164 9.15C8.59831 10.3833 7.88164 12.4333 7.78164 15.3C7.68164 18.0333 7.68164 20.8333 7.78164 23.7C7.88164 26.5667 8.59831 28.6333 9.93164 29.9C11.265 31.1333 13.0483 31.75 15.2816 31.75C17.215 31.75 18.8316 31.35 20.1316 30.55C21.4316 29.7167 22.3483 28.2167 22.8816 26.05C22.9816 25.5833 23.1483 25.2667 23.3816 25.1C23.615 24.9333 23.915 24.85 24.2816 24.85H29.0316C29.3316 24.85 29.5816 24.95 29.7816 25.15C30.015 25.35 30.115 25.6 30.0816 25.9C30.0483 27.5333 29.6816 29.05 28.9816 30.45C28.2816 31.85 27.2983 33.0833 26.0316 34.15C24.765 35.1833 23.2316 36 21.4316 36.6C19.6316 37.2 17.5983 37.5 15.3316 37.5ZM36.6613 37C36.328 37 36.0447 36.8833 35.8113 36.65C35.578 36.4167 35.4613 36.1333 35.4613 35.8V2.7C35.4613 2.36666 35.578 2.08333 35.8113 1.85C36.0447 1.61667 36.328 1.5 36.6613 1.5H41.1113C41.478 1.5 41.7613 1.61667 41.9613 1.85C42.1947 2.08333 42.3113 2.36666 42.3113 2.7V14.1C43.2113 13.0333 44.3113 12.1667 45.6113 11.5C46.9113 10.8333 48.5113 10.5 50.4113 10.5C52.4447 10.5 54.2113 10.9667 55.7113 11.9C57.2447 12.8 58.428 14.0833 59.2613 15.75C60.0947 17.4167 60.5113 19.4167 60.5113 21.75V35.8C60.5113 36.1333 60.3947 36.4167 60.1613 36.65C59.928 36.8833 59.6447 37 59.3113 37H54.8113C54.478 37 54.1947 36.8833 53.9613 36.65C53.728 36.4167 53.6113 36.1333 53.6113 35.8V22.05C53.6113 20.1167 53.128 18.6 52.1613 17.5C51.228 16.4 49.8613 15.85 48.0613 15.85C46.328 15.85 44.928 16.4 43.8613 17.5C42.828 18.6 42.3113 20.1167 42.3113 22.05V35.8C42.3113 36.1333 42.1947 36.4167 41.9613 36.65C41.7613 36.8833 41.478 37 41.1113 37H36.6613ZM74.4066 37.5C72.6733 37.5 71.1066 37.1667 69.7066 36.5C68.3066 35.8 67.19 34.8833 66.3566 33.75C65.5566 32.5833 65.1566 31.2833 65.1566 29.85C65.1566 27.5167 66.09 25.6667 67.9566 24.3C69.8566 22.9 72.3566 21.9667 75.4566 21.5L82.3066 20.5V19.45C82.3066 18.05 81.9566 16.9667 81.2566 16.2C80.5566 15.4333 79.3566 15.05 77.6566 15.05C76.4566 15.05 75.4733 15.3 74.7066 15.8C73.9733 16.2667 73.4233 16.9 73.0566 17.7C72.79 18.1333 72.4066 18.35 71.9066 18.35H67.9566C67.59 18.35 67.3066 18.25 67.1066 18.05C66.94 17.85 66.8566 17.5833 66.8566 17.25C66.89 16.7167 67.1066 16.0667 67.5066 15.3C67.9066 14.5333 68.54 13.8 69.4066 13.1C70.2733 12.3667 71.39 11.75 72.7566 11.25C74.1233 10.75 75.7733 10.5 77.7066 10.5C79.8066 10.5 81.5733 10.7667 83.0066 11.3C84.4733 11.8 85.64 12.4833 86.5066 13.35C87.3733 14.2167 88.0066 15.2333 88.4066 16.4C88.8066 17.5667 89.0066 18.8 89.0066 20.1V35.8C89.0066 36.1333 88.89 36.4167 88.6566 36.65C88.4233 36.8833 88.14 37 87.8066 37H83.7566C83.39 37 83.09 36.8833 82.8566 36.65C82.6566 36.4167 82.5566 36.1333 82.5566 35.8V33.85C82.1233 34.4833 81.54 35.0833 80.8066 35.65C80.0733 36.1833 79.1733 36.6333 78.1066 37C77.0733 37.3333 75.84 37.5 74.4066 37.5ZM76.1066 32.75C77.2733 32.75 78.3233 32.5 79.2566 32C80.2233 31.5 80.9733 30.7333 81.5066 29.7C82.0733 28.6333 82.3566 27.3 82.3566 25.7V24.65L77.3566 25.45C75.39 25.75 73.9233 26.2333 72.9566 26.9C71.99 27.5667 71.5066 28.3833 71.5066 29.35C71.5066 30.0833 71.7233 30.7167 72.1566 31.25C72.6233 31.75 73.2066 32.1333 73.9066 32.4C74.6066 32.6333 75.34 32.75 76.1066 32.75ZM106.927 37C104.927 37 103.244 36.65 101.877 35.95C100.51 35.25 99.4936 34.2167 98.827 32.85C98.1603 31.45 97.827 29.7167 97.827 27.65V16.3H93.877C93.5436 16.3 93.2603 16.1833 93.027 15.95C92.7936 15.7167 92.677 15.4333 92.677 15.1V12.2C92.677 11.8667 92.7936 11.5833 93.027 11.35C93.2603 11.1167 93.5436 11 93.877 11H97.827V2.7C97.827 2.36666 97.927 2.08333 98.127 1.85C98.3603 1.61667 98.6603 1.5 99.027 1.5H103.077C103.41 1.5 103.694 1.61667 103.927 1.85C104.16 2.08333 104.277 2.36666 104.277 2.7V11H110.527C110.86 11 111.144 11.1167 111.377 11.35C111.61 11.5833 111.727 11.8667 111.727 12.2V15.1C111.727 15.4333 111.61 15.7167 111.377 15.95C111.144 16.1833 110.86 16.3 110.527 16.3H104.277V27.15C104.277 28.5167 104.51 29.5833 104.977 30.35C105.477 31.1167 106.327 31.5 107.527 31.5H110.977C111.31 31.5 111.594 31.6167 111.827 31.85C112.06 32.0833 112.177 32.3667 112.177 32.7V35.8C112.177 36.1333 112.06 36.4167 111.827 36.65C111.594 36.8833 111.31 37 110.977 37H106.927ZM128.363 37C126.363 37 124.679 36.65 123.313 35.95C121.946 35.25 120.929 34.2167 120.263 32.85C119.596 31.45 119.263 29.7167 119.263 27.65V16.3H115.313C114.979 16.3 114.696 16.1833 114.463 15.95C114.229 15.7167 114.113 15.4333 114.113 15.1V12.2C114.113 11.8667 114.229 11.5833 114.463 11.35C114.696 11.1167 114.979 11 115.313 11H119.263V2.7C119.263 2.36666 119.363 2.08333 119.562 1.85C119.796 1.61667 120.096 1.5 120.463 1.5H124.513C124.846 1.5 125.129 1.61667 125.363 1.85C125.596 2.08333 125.713 2.36666 125.713 2.7V11H131.963C132.296 11 132.579 11.1167 132.813 11.35C133.046 11.5833 133.163 11.8667 133.163 12.2V15.1C133.163 15.4333 133.046 15.7167 132.813 15.95C132.579 16.1833 132.296 16.3 131.963 16.3H125.713V27.15C125.713 28.5167 125.946 29.5833 126.413 30.35C126.913 31.1167 127.763 31.5 128.963 31.5H132.413C132.746 31.5 133.029 31.6167 133.263 31.85C133.496 32.0833 133.613 32.3667 133.613 32.7V35.8C133.613 36.1333 133.496 36.4167 133.263 36.65C133.029 36.8833 132.746 37 132.413 37H128.363ZM149.248 37.5C145.548 37.5 142.615 36.4333 140.448 34.3C138.281 32.1667 137.115 29.1333 136.948 25.2C136.915 24.8667 136.898 24.45 136.898 23.95C136.898 23.4167 136.915 23 136.948 22.7C137.081 20.2 137.648 18.0333 138.648 16.2C139.681 14.3667 141.098 12.9667 142.898 12C144.698 11 146.815 10.5 149.248 10.5C151.948 10.5 154.215 11.0667 156.048 12.2C157.881 13.3 159.265 14.85 160.198 16.85C161.131 18.8167 161.598 21.1 161.598 23.7V24.75C161.598 25.0833 161.481 25.3667 161.248 25.6C161.015 25.8333 160.715 25.95 160.348 25.95H143.748C143.748 25.95 143.748 26 143.748 26.1C143.748 26.2 143.748 26.2833 143.748 26.35C143.781 27.5167 143.998 28.6 144.398 29.6C144.831 30.5667 145.448 31.35 146.248 31.95C147.081 32.55 148.065 32.85 149.198 32.85C150.131 32.85 150.915 32.7167 151.548 32.45C152.181 32.15 152.698 31.8167 153.098 31.45C153.498 31.0833 153.781 30.7833 153.948 30.55C154.248 30.15 154.481 29.9167 154.648 29.85C154.848 29.75 155.131 29.7 155.498 29.7H159.798C160.131 29.7 160.398 29.8 160.598 30C160.831 30.2 160.931 30.45 160.898 30.75C160.865 31.2833 160.581 31.9333 160.048 32.7C159.548 33.4667 158.815 34.2167 157.848 34.95C156.881 35.6833 155.665 36.3 154.198 36.8C152.765 37.2667 151.115 37.5 149.248 37.5ZM143.748 21.75H154.798V21.6C154.798 20.3 154.581 19.1667 154.148 18.2C153.715 17.2333 153.081 16.4667 152.248 15.9C151.415 15.3333 150.415 15.05 149.248 15.05C148.081 15.05 147.081 15.3333 146.248 15.9C145.415 16.4667 144.781 17.2333 144.348 18.2C143.948 19.1667 143.748 20.3 143.748 21.6V21.75ZM168.105 37C167.772 37 167.489 36.8833 167.255 36.65C167.022 36.4167 166.905 36.1333 166.905 35.8V12.25C166.905 11.8833 167.022 11.5833 167.255 11.35C167.489 11.1167 167.772 11 168.105 11H172.155C172.489 11 172.772 11.1167 173.005 11.35C173.272 11.5833 173.405 11.8833 173.405 12.25V14.3C174.172 13.2333 175.155 12.4167 176.355 11.85C177.589 11.2833 179.005 11 180.605 11H182.655C183.022 11 183.305 11.1167 183.505 11.35C183.739 11.5833 183.855 11.8667 183.855 12.2V15.8C183.855 16.1333 183.739 16.4167 183.505 16.65C183.305 16.8833 183.022 17 182.655 17H178.755C177.155 17 175.905 17.45 175.005 18.35C174.139 19.25 173.705 20.4833 173.705 22.05V35.8C173.705 36.1333 173.589 36.4167 173.355 36.65C173.122 36.8833 172.822 37 172.455 37H168.105ZM185.97 37C185.636 37 185.353 36.8833 185.12 36.65C184.886 36.4167 184.77 36.1333 184.77 35.8V30.85C184.77 30.4833 184.886 30.1833 185.12 29.95C185.353 29.7167 185.636 29.6 185.97 29.6H190.97C191.303 29.6 191.586 29.7167 191.82 29.95C192.053 30.1833 192.17 30.4833 192.17 30.85V35.8C192.17 36.1333 192.053 36.4167 191.82 36.65C191.586 36.8833 191.303 37 190.97 37H185.97Z" fill="#E5E9F0"/>
<path d="M199.648 37C199.315 37 199.032 36.8833 198.798 36.65C198.565 36.4167 198.448 36.1333 198.448 35.8V12.2C198.448 11.8667 198.565 11.5833 198.798 11.35C199.032 11.1167 199.315 11 199.648 11H203.798C204.165 11 204.448 11.1167 204.648 11.35C204.882 11.5833 204.998 11.8667 204.998 12.2V35.8C204.998 36.1333 204.882 36.4167 204.648 36.65C204.448 36.8833 204.165 37 203.798 37H199.648ZM199.448 6.7C199.082 6.7 198.782 6.6 198.548 6.4C198.348 6.16667 198.248 5.86667 198.248 5.5V1.9C198.248 1.56667 198.348 1.28333 198.548 1.05C198.782 0.816666 199.082 0.699999 199.448 0.699999H203.998C204.365 0.699999 204.665 0.816666 204.898 1.05C205.132 1.28333 205.248 1.56667 205.248 1.9V5.5C205.248 5.86667 205.132 6.16667 204.898 6.4C204.665 6.6 204.365 6.7 203.998 6.7H199.448ZM223.279 37.5C220.612 37.5 218.362 37.0333 216.529 36.1C214.729 35.1667 213.345 33.85 212.379 32.15C211.445 30.45 210.912 28.4667 210.779 26.2C210.745 25.6 210.729 24.8667 210.729 24C210.729 23.1333 210.745 22.4 210.779 21.8C210.912 19.5 211.462 17.5167 212.429 15.85C213.429 14.15 214.829 12.8333 216.629 11.9C218.462 10.9667 220.679 10.5 223.279 10.5C225.879 10.5 228.079 10.9667 229.879 11.9C231.712 12.8333 233.112 14.15 234.079 15.85C235.079 17.5167 235.645 19.5 235.779 21.8C235.812 22.4 235.829 23.1333 235.829 24C235.829 24.8667 235.812 25.6 235.779 26.2C235.645 28.4667 235.095 30.45 234.129 32.15C233.195 33.85 231.812 35.1667 229.979 36.1C228.179 37.0333 225.945 37.5 223.279 37.5ZM223.279 32.55C225.045 32.55 226.412 32 227.379 30.9C228.345 29.7667 228.879 28.1167 228.979 25.95C229.012 25.45 229.029 24.8 229.029 24C229.029 23.2 229.012 22.55 228.979 22.05C228.879 19.9167 228.345 18.2833 227.379 17.15C226.412 16.0167 225.045 15.45 223.279 15.45C221.512 15.45 220.145 16.0167 219.179 17.15C218.212 18.2833 217.679 19.9167 217.579 22.05C217.545 22.55 217.529 23.2 217.529 24C217.529 24.8 217.545 25.45 217.579 25.95C217.679 28.1167 218.212 29.7667 219.179 30.9C220.145 32 221.512 32.55 223.279 32.55Z" fill="#B48EAD"/>
</svg>
