<svg width="67" height="67" viewBox="0 0 67 67" fill="none" xmlns="http://www.w3.org/2000/svg">
<mask id="mask0_355_39" style="mask-type:alpha" maskUnits="userSpaceOnUse" x="21" y="21" width="25" height="25">
<circle cx="33.5" cy="33.5" r="12.5" fill="#D9D9D9"/>
</mask>
<g mask="url(#mask0_355_39)">
<mask id="path-2-inside-1_355_39" fill="white">
<path fill-rule="evenodd" clip-rule="evenodd" d="M46 33.5C46 37.6021 44.024 41.2427 40.972 43.5219L40.6771 41.5559C40.1442 38.0032 37.0924 35.375 33.5 35.375C29.9076 35.375 26.8558 38.0032 26.3229 41.5559L26.028 43.5219C22.976 41.2427 21 37.6021 21 33.5C21 26.5964 26.5964 21 33.5 21C40.4036 21 46 26.5964 46 33.5ZM33.5 34.125C36.2614 34.125 38.5 31.8864 38.5 29.125C38.5 26.3636 36.2614 24.125 33.5 24.125C30.7386 24.125 28.5 26.3636 28.5 29.125C28.5 31.8864 30.7386 34.125 33.5 34.125Z"/>
</mask>
<path fill-rule="evenodd" clip-rule="evenodd" d="M46 33.5C46 37.6021 44.024 41.2427 40.972 43.5219L40.6771 41.5559C40.1442 38.0032 37.0924 35.375 33.5 35.375C29.9076 35.375 26.8558 38.0032 26.3229 41.5559L26.028 43.5219C22.976 41.2427 21 37.6021 21 33.5C21 26.5964 26.5964 21 33.5 21C40.4036 21 46 26.5964 46 33.5ZM33.5 34.125C36.2614 34.125 38.5 31.8864 38.5 29.125C38.5 26.3636 36.2614 24.125 33.5 24.125C30.7386 24.125 28.5 26.3636 28.5 29.125C28.5 31.8864 30.7386 34.125 33.5 34.125Z" fill="#E5E9F0"/>
<path d="M40.972 43.5219L39.9831 43.6702L40.2311 45.3233L41.5704 44.3231L40.972 43.5219ZM40.6771 41.5559L39.6882 41.7042L40.6771 41.5559ZM26.3229 41.5559L27.3118 41.7042L26.3229 41.5559ZM26.028 43.5219L25.4296 44.3231L26.7689 45.3233L27.0169 43.6702L26.028 43.5219ZM41.5704 44.3231C44.8643 41.8633 47 37.9309 47 33.5H45C45 37.2733 43.1838 40.6221 40.3737 42.7206L41.5704 44.3231ZM39.6882 41.7042L39.9831 43.6702L41.961 43.3735L41.6661 41.4075L39.6882 41.7042ZM33.5 36.375C36.5974 36.375 39.2287 38.6411 39.6882 41.7042L41.6661 41.4075C41.0597 37.3653 37.5874 34.375 33.5 34.375V36.375ZM27.3118 41.7042C27.7713 38.6411 30.4026 36.375 33.5 36.375V34.375C29.4126 34.375 25.9403 37.3653 25.3339 41.4075L27.3118 41.7042ZM27.0169 43.6702L27.3118 41.7042L25.3339 41.4075L25.039 43.3735L27.0169 43.6702ZM20 33.5C20 37.9309 22.1357 41.8633 25.4296 44.3231L26.6263 42.7206C23.8162 40.6221 22 37.2733 22 33.5H20ZM33.5 20C26.0442 20 20 26.0442 20 33.5H22C22 27.1487 27.1487 22 33.5 22V20ZM47 33.5C47 26.0442 40.9558 20 33.5 20V22C39.8513 22 45 27.1487 45 33.5H47ZM37.5 29.125C37.5 31.3341 35.7091 33.125 33.5 33.125V35.125C36.8137 35.125 39.5 32.4387 39.5 29.125H37.5ZM33.5 25.125C35.7091 25.125 37.5 26.9159 37.5 29.125H39.5C39.5 25.8113 36.8137 23.125 33.5 23.125V25.125ZM29.5 29.125C29.5 26.9159 31.2909 25.125 33.5 25.125V23.125C30.1863 23.125 27.5 25.8113 27.5 29.125H29.5ZM33.5 33.125C31.2909 33.125 29.5 31.3341 29.5 29.125H27.5C27.5 32.4387 30.1863 35.125 33.5 35.125V33.125Z" fill="#E5E9F0" mask="url(#path-2-inside-1_355_39)"/>
</g>
</svg>
